<svg id="Layer_1" data-name="Layer 1" xmlns="http://www.w3.org/2000/svg" xmlns:xlink="http://www.w3.org/1999/xlink" viewBox="0 0 408.61 283.37"><defs><style>.cls-1{fill:#867db6;}.cls-2{opacity:0.81;}.cls-3,.cls-4{fill:#77c26e;}.cls-3,.cls-62,.cls-63,.cls-64,.cls-65,.cls-69{fill-rule:evenodd;}.cls-5,.cls-63{fill:#c5bdeb;}.cls-6{fill:#e9eefa;}.cls-24,.cls-25,.cls-58,.cls-7{fill:#fff;}.cls-8{fill:#7a98ed;}.cls-9{fill:#293043;}.cls-10{fill:#fb5027;}.cls-11{fill:url(#linear-gradient);}.cls-12{fill:url(#linear-gradient-2);}.cls-13{fill:url(#linear-gradient-3);}.cls-14{fill:url(#linear-gradient-4);}.cls-15{fill:url(#linear-gradient-5);}.cls-16{fill:url(#linear-gradient-6);}.cls-17{fill:url(#linear-gradient-7);}.cls-18{fill:url(#linear-gradient-8);}.cls-19,.cls-21,.cls-33,.cls-69,.cls-70{fill:none;}.cls-19,.cls-21{stroke:#293043;}.cls-19,.cls-21,.cls-50,.cls-69{stroke-linecap:round;}.cls-19,.cls-21,.cls-24,.cls-33,.cls-50,.cls-52,.cls-53,.cls-69,.cls-70{stroke-miterlimit:10;}.cls-20{fill:#c4bfd4;}.cls-21,.cls-50,.cls-52,.cls-53{stroke-width:2px;}.cls-22,.cls-62{fill:#72bb7e;}.cls-23{fill:#609e6b;}.cls-24{stroke:#000;}.cls-25{font-size:7.36px;}.cls-25,.cls-56,.cls-58{font-family:MyriadPro-Regular, Myriad Pro;}.cls-26{letter-spacing:0em;}.cls-27{letter-spacing:0.01em;}.cls-28{fill:#f9bb33;}.cls-29{fill:#5b5ba7;}.cls-30{fill:#9bd0ee;}.cls-31,.cls-64{fill:#f27149;}.cls-32{fill:#2a2866;}.cls-33{stroke:#af0000;}.cls-34{fill:url(#linear-gradient-9);}.cls-35{fill:url(#linear-gradient-10);}.cls-36{fill:url(#linear-gradient-11);}.cls-37{fill:url(#linear-gradient-12);}.cls-38{fill:url(#linear-gradient-13);}.cls-39{fill:url(#linear-gradient-14);}.cls-40{fill:url(#linear-gradient-15);}.cls-41{fill:url(#linear-gradient-16);}.cls-42{fill:url(#linear-gradient-17);}.cls-43{fill:url(#linear-gradient-18);}.cls-44{fill:url(#linear-gradient-19);}.cls-45{fill:url(#linear-gradient-20);}.cls-46{fill:url(#linear-gradient-21);}.cls-47{fill:url(#linear-gradient-22);}.cls-48{fill:url(#linear-gradient-23);}.cls-49{fill:url(#linear-gradient-24);}.cls-50,.cls-52,.cls-53{fill:#f37837;}.cls-50,.cls-53{stroke:#272f59;}.cls-51{fill:#86d1d7;}.cls-52{stroke:#f7971f;}.cls-54{fill:#f05e22;}.cls-55{fill:#f7971f;}.cls-56,.cls-58{font-size:6.31px;}.cls-57{letter-spacing:-0.01em;}.cls-59{letter-spacing:-0.03em;}.cls-60{letter-spacing:-0.01em;}.cls-61{letter-spacing:-0.01em;}.cls-65{fill:#d1623f;}.cls-66{fill:#fefeff;}.cls-67{fill:#f5f5ff;}.cls-68{fill:#d4d4ff;}.cls-69{stroke:#f28563;stroke-width:5px;}.cls-70{stroke:#2a2866;}</style><linearGradient id="linear-gradient" x1="98.04" y1="248.84" x2="104.79" y2="248.84" gradientTransform="matrix(1, 0, 0, -1, 0, 320.82)" gradientUnits="userSpaceOnUse"><stop offset="0" stop-color="#f15934"/><stop offset="1" stop-color="#f04c38"/></linearGradient><linearGradient id="linear-gradient-2" x1="104.1" y1="247.6" x2="108.58" y2="247.6" xlink:href="#linear-gradient"/><linearGradient id="linear-gradient-3" x1="108.28" y1="248.59" x2="111.89" y2="248.59" xlink:href="#linear-gradient"/><linearGradient id="linear-gradient-4" x1="110.94" y1="247.49" x2="117.56" y2="247.49" xlink:href="#linear-gradient"/><linearGradient id="linear-gradient-5" x1="116.86" y1="248.35" x2="120.47" y2="248.35" xlink:href="#linear-gradient"/><linearGradient id="linear-gradient-6" x1="119.75" y1="248.77" x2="126.77" y2="248.77" xlink:href="#linear-gradient"/><linearGradient id="linear-gradient-7" x1="126.8" y1="247.59" x2="131.32" y2="247.59" xlink:href="#linear-gradient"/><linearGradient id="linear-gradient-8" x1="130.44" y1="247.81" x2="136.95" y2="247.81" xlink:href="#linear-gradient"/><linearGradient id="linear-gradient-9" x1="234.03" y1="265.76" x2="238.61" y2="265.76" xlink:href="#linear-gradient"/><linearGradient id="linear-gradient-10" x1="238.15" y1="264.92" x2="241.18" y2="264.92" xlink:href="#linear-gradient"/><linearGradient id="linear-gradient-11" x1="240.98" y1="265.6" x2="243.44" y2="265.6" xlink:href="#linear-gradient"/><linearGradient id="linear-gradient-12" x1="242.79" y1="264.85" x2="247.29" y2="264.85" xlink:href="#linear-gradient"/><linearGradient id="linear-gradient-13" x1="246.81" y1="265.43" x2="249.27" y2="265.43" xlink:href="#linear-gradient"/><linearGradient id="linear-gradient-14" x1="248.78" y1="265.72" x2="253.54" y2="265.72" xlink:href="#linear-gradient"/><linearGradient id="linear-gradient-15" x1="253.57" y1="264.92" x2="256.63" y2="264.92" xlink:href="#linear-gradient"/><linearGradient id="linear-gradient-16" x1="256.03" y1="265.07" x2="260.46" y2="265.07" xlink:href="#linear-gradient"/><linearGradient id="linear-gradient-17" x1="251.33" y1="227.17" x2="256.03" y2="227.17" xlink:href="#linear-gradient"/><linearGradient id="linear-gradient-18" x1="255.55" y1="226.3" x2="258.67" y2="226.3" xlink:href="#linear-gradient"/><linearGradient id="linear-gradient-19" x1="258.46" y1="227" x2="260.98" y2="227" xlink:href="#linear-gradient"/><linearGradient id="linear-gradient-20" x1="260.31" y1="226.23" x2="264.93" y2="226.23" xlink:href="#linear-gradient"/><linearGradient id="linear-gradient-21" x1="264.44" y1="226.83" x2="266.96" y2="226.83" xlink:href="#linear-gradient"/><linearGradient id="linear-gradient-22" x1="266.46" y1="227.12" x2="271.35" y2="227.12" xlink:href="#linear-gradient"/><linearGradient id="linear-gradient-23" x1="271.38" y1="226.3" x2="274.52" y2="226.3" xlink:href="#linear-gradient"/><linearGradient id="linear-gradient-24" x1="273.91" y1="226.46" x2="278.45" y2="226.46" xlink:href="#linear-gradient"/></defs><title>slide-2</title><rect class="cls-1" x="213.18" y="11.9" width="85.22" height="141.47"/><g class="cls-2"><path class="cls-3" d="M31.85,191.73a4.46,4.46,0,0,1,6,1.68,4.24,4.24,0,0,1-1.72,5.84,4.47,4.47,0,0,1-6-1.68,4.25,4.25,0,0,1,1.73-5.84Z" transform="translate(-1.46 -32.04)"/><path class="cls-3" d="M100.48,202.4l-.17-.24v.12a1.4,1.4,0,0,1-.18.58,1.59,1.59,0,0,1-2.12.62,359.4,359.4,0,0,0-54.86-23.21,1.52,1.52,0,0,1-1-1.93,1.58,1.58,0,0,1,2-1,366,366,0,0,1,42.06,16.78l12.9,6.45-7.87-10.39C69.05,161.89,42.39,134,12.71,106.43a1.49,1.49,0,0,1-.05-2.16,1.58,1.58,0,0,1,2.21,0c34,31.59,64.14,63.66,88.16,96.39a1.52,1.52,0,0,1-.36,2.14,1.61,1.61,0,0,1-2.19-.35Zm19.81-10.62a2.75,2.75,0,0,1-1.4-.27c-2.94-1.38-4.32-8-5.2-13.29a204.88,204.88,0,0,1-2.2-26.13c-.6-20.07.68-43.84,4.81-60A1.59,1.59,0,0,1,118.21,91a1.51,1.51,0,0,1,1.13,1.85c-4,15.75-5.32,39.19-4.72,59.16a204.76,204.76,0,0,0,2.16,25.74,51.14,51.14,0,0,0,1.89,8.08,8.82,8.82,0,0,0,1.36,2.75l.22.19.49.07a1.51,1.51,0,0,1-.45,2.95ZM108.7,196.2C85.35,158.26,66.14,118,70,66.9a1.57,1.57,0,0,1,3.13.23c-3.79,50.17,15,89.72,38.26,127.5a1.52,1.52,0,0,1-.54,2.09,1.6,1.6,0,0,1-2.15-.52ZM124.1,186a1.53,1.53,0,0,1-1.35-1.71c3.09-23.48,29.74-48,40.91-74a1.58,1.58,0,0,1,2.05-.81,1.5,1.5,0,0,1,.84,2c-11.42,26.66-37.73,50.72-40.7,73.23A1.56,1.56,0,0,1,124.1,186Z" transform="translate(-1.46 -32.04)"/><path class="cls-3" d="M49.7,179.89c-9.8-16.24-22.88-21-27.59-9.88-3.1,11.64,12.24,16.73,27.59,9.88Z" transform="translate(-1.46 -32.04)"/><path class="cls-3" d="M64.61,185.49c4.63-12.85,1.23-22.13-7.27-19.46-8,3.75-3.76,14.39,7.27,19.46Z" transform="translate(-1.46 -32.04)"/><path class="cls-3" d="M66.44,187.07c-13.58-3.11-22.69,1.18-19,9.14,4.68,7.39,15.06,2.11,19-9.14Z" transform="translate(-1.46 -32.04)"/><path class="cls-3" d="M80.53,192.74c-13,.24-20.19,6.14-15,12.5,6,5.62,14.09-1.46,15-12.5Z" transform="translate(-1.46 -32.04)"/><path class="cls-3" d="M66.69,158.11c8-11.12,7.37-21-1.56-20.66-8.78,1.49-7.64,12.86,1.56,20.66Z" transform="translate(-1.46 -32.04)"/><path class="cls-3" d="M23.52,116.12c-.36-18.83-9.35-29.26-19.06-21.81C-4.1,103,6.7,114.75,23.52,116.12Z" transform="translate(-1.46 -32.04)"/><path class="cls-3" d="M71.88,78.87c13-13.9,13.88-27.5,1.57-28.61-12.31.52-12.81,16.31-1.57,28.61Z" transform="translate(-1.46 -32.04)"/><path class="cls-3" d="M163.47,116c15.69-11,19.38-24.13,7.59-27.7-12.18-2-16,13.4-7.59,27.7Z" transform="translate(-1.46 -32.04)"/><path class="cls-3" d="M114,102.71c15.69-11,19.4-24.14,7.59-27.69-12.17-2-16,13.4-7.59,27.69Z" transform="translate(-1.46 -32.04)"/><path class="cls-3" d="M13.54,146a7.32,7.32,0,0,1,9.8,2.76,7,7,0,0,1-2.83,9.56,7.3,7.3,0,0,1-9.8-2.76A6.94,6.94,0,0,1,13.54,146Z" transform="translate(-1.46 -32.04)"/><path class="cls-3" d="M31.85,65.84a7.9,7.9,0,0,1,10.59,3,7.51,7.51,0,0,1-3.06,10.33,7.91,7.91,0,0,1-10.59-3,7.51,7.51,0,0,1,3.06-10.33Z" transform="translate(-1.46 -32.04)"/><path class="cls-3" d="M90.31,66.09a3.4,3.4,0,0,1,4.57,1.29,3.23,3.23,0,0,1-1.32,4.45A3.4,3.4,0,0,1,89,70.55a3.23,3.23,0,0,1,1.32-4.46Z" transform="translate(-1.46 -32.04)"/><path class="cls-3" d="M138.66,87.47a7.57,7.57,0,0,1,10.14,2.85,7.19,7.19,0,0,1-2.93,9.88,7.56,7.56,0,0,1-10.13-2.85,7.18,7.18,0,0,1,2.92-9.88Z" transform="translate(-1.46 -32.04)"/><path class="cls-3" d="M177.22,112.49a4.57,4.57,0,0,1,6.12,1.72,4.34,4.34,0,0,1-1.77,6,4.57,4.57,0,0,1-6.12-1.72,4.34,4.34,0,0,1,1.77-6Z" transform="translate(-1.46 -32.04)"/><path class="cls-3" d="M88.7,111.1A3.17,3.17,0,0,1,93,112.3a3,3,0,0,1-1.23,4.16,3.21,3.21,0,0,1-4.27-1.2,3,3,0,0,1,1.24-4.16Z" transform="translate(-1.46 -32.04)"/><path class="cls-3" d="M77,127.64c-6-12.28-15.14-16.52-19.23-8.77-3,8.19,7.74,12.78,19.23,8.77Z" transform="translate(-1.46 -32.04)"/><path class="cls-3" d="M113.41,133.44c4.09-13,12.46-18.53,17.68-11.46,4.2,7.66-5.7,13.76-17.68,11.46Z" transform="translate(-1.46 -32.04)"/><path class="cls-3" d="M98.05,176.12c-6.39-12.1-4.35-21.74,4.45-20.25,8.5,2.64,5.77,13.74-4.45,20.25Z" transform="translate(-1.46 -32.04)"/><path class="cls-3" d="M139.24,155.71c-11-8.37-13.3-18-4.66-20.2,8.84-1.07,11.14,10.13,4.66,20.2Z" transform="translate(-1.46 -32.04)"/><path class="cls-3" d="M40.05,129c11.6-15.08,11.09-28.69-1.27-28.64C26.58,102,27.66,117.78,40.05,129Z" transform="translate(-1.46 -32.04)"/><path class="cls-3" d="M59.86,152.18c-14.36-12.62-28.31-13.34-29.36-1.33.62,12,16.84,12.36,29.36,1.33Z" transform="translate(-1.46 -32.04)"/><path class="cls-3" d="M74.65,108.6c18.78-4.46,27.26-15.29,17.67-22.91-10.52-6.26-19.95,6.6-17.67,22.91Z" transform="translate(-1.46 -32.04)"/><path class="cls-3" d="M71.72,96C67,77.74,55.8,69.57,48.08,79,41.75,89.3,55,98.39,71.72,96Z" transform="translate(-1.46 -32.04)"/><path class="cls-3" d="M36.74,127.22c-12-7-22-5.63-21,3,2.16,8.42,13.7,6.49,21-3Z" transform="translate(-1.46 -32.04)"/><path class="cls-3" d="M89.6,154.86c13.87-10.5,16.79-22.57,5.92-25.41-11.12-1.38-14,12.71-5.92,25.41Z" transform="translate(-1.46 -32.04)"/><path class="cls-3" d="M112.8,126.13c-.4-13.61-7-21.08-13.93-15.62-6.13,6.3,1.77,14.75,13.93,15.62Z" transform="translate(-1.46 -32.04)"/><path class="cls-3" d="M114.24,164.22c13.92-1,21.3-7.7,15.42-14.25-6.73-5.69-15,2.36-15.42,14.25Z" transform="translate(-1.46 -32.04)"/><path class="cls-3" d="M150,136.45c15.74,7.59,28.14,4.88,26-5.9-3.59-10.35-17.86-6.77-26,5.9Z" transform="translate(-1.46 -32.04)"/><path class="cls-3" d="M152.77,131.87c5.62-12.47,3-22-5.73-20-8.3,3.15-4.88,14.07,5.73,20Z" transform="translate(-1.46 -32.04)"/><path class="cls-3" d="M130.46,167c18.92,9,33.76,5.65,31.14-7.24-4.37-12.39-21.44-8-31.14,7.24Z" transform="translate(-1.46 -32.04)"/></g><path class="cls-3" d="M361,64.82c-6.8-2.94-12-1.58-10.9,2.94,1.7,4.32,7.68,2.56,10.9-2.94Z" transform="translate(-1.46 -32.04)"/><path class="cls-4" d="M377.43,120.34a1.23,1.23,0,0,1,.18-1.26h0c.13-.16,12.48-15.57,8.06-30.51-2.8-9.47-11.7-16.84-26.45-21.9a1.25,1.25,0,0,1-.79-1.61,1.3,1.3,0,0,1,1.65-.77c15.59,5.35,25,13.29,28.08,23.59,2,6.73,1.14,14.54-2.46,22.58a50,50,0,0,1-6.06,10.19,1.33,1.33,0,0,1-1.82.2A1.27,1.27,0,0,1,377.43,120.34Z" transform="translate(-1.46 -32.04)"/><path class="cls-3" d="M386.8,86C372.92,74,359.56,73.46,358.68,85c.72,11.49,16.25,11.66,28.12,1Z" transform="translate(-1.46 -32.04)"/><path class="cls-3" d="M385.06,80.84c3.67-12.34,0-20.9-7.89-18-7.37,3.95-2.78,13.75,7.89,18Z" transform="translate(-1.46 -32.04)"/><path class="cls-3" d="M369.72,71.2c-7.66-3.31-13.5-1.77-12.27,3.31,1.91,4.87,8.64,2.88,12.27-3.31Z" transform="translate(-1.46 -32.04)"/><path class="cls-3" d="M360.71,65.37c.61-7.23-2.43-11.57-6.44-9.07-3.62,3,.05,7.91,6.44,9.07Z" transform="translate(-1.46 -32.04)"/><path class="cls-3" d="M368.74,68.16c-6.21-5.47-7.15-11.3-1.89-12.28,5.34-.27,6.21,6.53,1.89,12.28Z" transform="translate(-1.46 -32.04)"/><ellipse class="cls-4" cx="394.73" cy="32.18" rx="3.13" ry="3.05"/><ellipse class="cls-4" cx="350.57" cy="48.91" rx="1.52" ry="1.49"/><ellipse class="cls-4" cx="386.66" cy="83.28" rx="4.09" ry="3.99"/><path class="cls-3" d="M392.16,119.62c4.8,4.9,9.79,5.52,10.49,1.24.11-4.32-5.7-4.87-10.49-1.24Z" transform="translate(-1.46 -32.04)"/><path class="cls-3" d="M400.79,92.92c-1.23-4.08-3.83-5.83-5.49-3.64-1.34,2.38,1.74,4.32,5.49,3.64Z" transform="translate(-1.46 -32.04)"/><path class="cls-4" d="M381.52,121.14a.75.75,0,0,1,.65-.4h0c.12,0,11.88-.45,17.06-8,3.29-4.81,3.29-11.49,0-19.85a.74.74,0,0,1,.44-1,.77.77,0,0,1,1,.43c3.46,8.84,3.4,16-.18,21.21-2.34,3.42-6.24,6-11.3,7.49a30,30,0,0,1-7,1.21.75.75,0,0,1-.79-.71A.78.78,0,0,1,381.52,121.14Z" transform="translate(-1.46 -32.04)"/><path class="cls-3" d="M400.86,112.19c.22-10.58-4.6-16.63-10.22-12.65-5,4.68.81,11.53,10.22,12.65Z" transform="translate(-1.46 -32.04)"/><path class="cls-3" d="M402.55,109.5c7.05-3.08,9.58-7.94,5.25-10.26-4.61-1.72-7.37,4-5.25,10.26Z" transform="translate(-1.46 -32.04)"/><path class="cls-3" d="M401.15,99.14c-1.38-4.6-4.3-6.57-6.17-4.1-1.51,2.68,1.95,4.86,6.17,4.1Z" transform="translate(-1.46 -32.04)"/><path class="cls-3" d="M400.42,93c3.55-2.48,4.38-5.45,1.72-6.26-2.75-.44-3.62,3-1.72,6.26Z" transform="translate(-1.46 -32.04)"/><path class="cls-3" d="M402.18,97.56c.16-4.79,2.48-7.41,4.92-5.48,2.15,2.23-.64,5.19-4.92,5.48Z" transform="translate(-1.46 -32.04)"/><ellipse class="cls-4" cx="406.78" cy="79.25" rx="1.84" ry="1.79"/><ellipse class="cls-4" cx="388.51" cy="63.07" rx="0.89" ry="0.87"/><ellipse class="cls-4" cx="386.42" cy="91.87" rx="2.4" ry="2.34"/><rect class="cls-5" x="71.12" width="119.6" height="233.62" rx="13.65" ry="13.65"/><rect class="cls-6" x="73.34" y="29.65" width="114.77" height="181.04"/><path class="cls-7" d="M134.74,261.68a8,8,0,1,1,8.22-8A8.12,8.12,0,0,1,134.74,261.68Z" transform="translate(-1.46 -32.04)"/><path class="cls-8" d="M134.74,246.18a7.5,7.5,0,1,1-7.71,7.5,7.62,7.62,0,0,1,7.71-7.5m0-1a8.5,8.5,0,1,0,8.72,8.5,8.6,8.6,0,0,0-8.72-8.5Z" transform="translate(-1.46 -32.04)"/><rect class="cls-7" x="73.34" y="29.65" width="114.77" height="19.79"/><path class="cls-9" d="M91.33,77.73H84.87a3,3,0,0,1-3.07-3V68.44a3,3,0,0,1,3.07-3h6.46a3,3,0,0,1,3.07,3v6.29A3,3,0,0,1,91.33,77.73Z" transform="translate(-1.46 -32.04)"/><path class="cls-7" d="M85.36,71.16c.17.13.33.06.33-.16.07-4.09,5.86-3.32,3.15-.16-.93,1-1.78,0-1.46.46.18.25-.32.31.18.25,3.2-.42,2.17,4,.51,2.77a.23.23,0,0,0-.32.12.88.88,0,0,0,.88,1.33,2.52,2.52,0,0,0,2.54-2.66c.09-1.9-1.22-2-1.67-2-.17,0,.26-.1.32-.26L90.51,69a.23.23,0,0,0-.06-.26l-1-.88a.25.25,0,0,0-.2-.07l-2.8.27a.28.28,0,0,0-.2.13L85,70.63a.24.24,0,0,0,.07.31Z" transform="translate(-1.46 -32.04)"/><path class="cls-10" d="M85.38,71.31c-.32,0-1.17-.18-.85-1.38.86-3.23,7.14-3.7,6.73,0-.08.76-.49,1.93-3.22,2.53a.28.28,0,0,0-.21.21c-.21.92-.5,2.23-.62,2.74a.28.28,0,0,1-.27.22H85.83a.27.27,0,0,1-.27-.33L87,69a.27.27,0,0,1,.23-.21l1-.16a.28.28,0,0,1,.31.34L88,71.56c-.06.23.07.42.41.3a2.63,2.63,0,0,0,1.52-2c.61-3.17-4.81-2.16-4.26,1.09A.28.28,0,0,1,85.38,71.31Z" transform="translate(-1.46 -32.04)"/><path class="cls-11" d="M99.42,75.88l1.11-6.53,1.7-.32-.58,3.41A1.93,1.93,0,0,0,103,71.5a2.78,2.78,0,0,0,.47-1.72,1.21,1.21,0,0,0-.87-1.16,2,2,0,0,0-.66-.06,3.37,3.37,0,0,0-2.16.8,2.17,2.17,0,0,0-.65,1.85,1.2,1.2,0,0,0,.17.61.09.09,0,0,1,0,.07c-.61,0-1-.1-1.19-.44a1.15,1.15,0,0,1-.11-.46,1.53,1.53,0,0,1,.29-1,3.71,3.71,0,0,1,.88-.89,5.2,5.2,0,0,1,2.65-1,3.3,3.3,0,0,1,2.12.42,1.78,1.78,0,0,1,.79,1.36,2.11,2.11,0,0,1-.16,1,2.81,2.81,0,0,1-.6.92,3.55,3.55,0,0,1-2.38,1h-.06l-.5,3.05Z" transform="translate(-1.46 -32.04)"/><path class="cls-12" d="M104.1,75.88l.88-5.11,1.5-.12-.1.64a6.12,6.12,0,0,1,.61-.47,1.45,1.45,0,0,1,.73-.25.76.76,0,0,1,.62.18.7.7,0,0,1,.24.43.78.78,0,0,1-.19.61.73.73,0,0,1-.52.26.52.52,0,0,1-.42-.1.4.4,0,0,1-.14-.24.64.64,0,0,0-.08-.2.17.17,0,0,0-.16-.07.86.86,0,0,0-.41.13,2.27,2.27,0,0,0-.39.31l-.66,4Z" transform="translate(-1.46 -32.04)"/><path class="cls-13" d="M111.89,73.83a2.57,2.57,0,0,1-2.35,2,1.31,1.31,0,0,1-.84-.23,1.13,1.13,0,0,1-.42-.9,3.18,3.18,0,0,1,0-.66l.56-3.28,1.67-.11L110,74.16a1.45,1.45,0,0,0,0,.36c0,.22.18.33.49.31a1,1,0,0,0,.61-.3,1.27,1.27,0,0,0,.37-.67Zm-1-4.51a.71.71,0,0,1-.23.58,1,1,0,0,1-.64.28,1,1,0,0,1-.67-.19.75.75,0,0,1-.3-.54.76.76,0,0,1,.22-.58,1,1,0,0,1,.63-.29,1,1,0,0,1,.67.19A.71.71,0,0,1,110.86,69.32Z" transform="translate(-1.46 -32.04)"/><path class="cls-14" d="M115.67,74.43a.39.39,0,0,0,.46.41.83.83,0,0,0,.58-.26,2.64,2.64,0,0,0,.36-.7l.49,0c-.37,1.16-.93,1.81-1.69,2l-.44.05a1.66,1.66,0,0,1-.54-.06,1,1,0,0,1-.79-1,5.47,5.47,0,0,1,.17-1.33,5.29,5.29,0,0,0,.17-1.27q0-.51-.45-.48c-.27,0-.51.23-.7.63a1.4,1.4,0,0,0-.13.36l-.56,3.15h-1.66l.87-4.87,1.66-.12-.09.53a1.88,1.88,0,0,1,1.31-.66,1.58,1.58,0,0,1,.94.2.9.9,0,0,1,.42.76,4.34,4.34,0,0,1-.1,1.2l-.21,1A1.47,1.47,0,0,0,115.67,74.43Z" transform="translate(-1.46 -32.04)"/><path class="cls-15" d="M120.47,73.83a2.57,2.57,0,0,1-2.35,2,1.31,1.31,0,0,1-.84-.23,1.13,1.13,0,0,1-.42-.9,3.18,3.18,0,0,1,0-.66l.5-2.87-.38,0,.06-.41.38,0,.25-1.41,1.7-.33-.28,1.62.69-.05-.06.41-.69,0-.53,3.06a1.56,1.56,0,0,0,0,.37c0,.22.18.32.49.3a.87.87,0,0,0,.61-.3,1.37,1.37,0,0,0,.38-.66Z" transform="translate(-1.46 -32.04)"/><path class="cls-16" d="M125.16,73c-.06-.85-.46-1.25-1.19-1.2a3.24,3.24,0,0,0-.52.07l-.68,4-1.66-.06,1.12-6.46,1.7-.31-.39,2.26h.07a1.59,1.59,0,0,0,1.12-.6,1.63,1.63,0,0,0,.43-1.15,1,1,0,0,0-.89-.94,2.44,2.44,0,0,0-.68,0,4.16,4.16,0,0,0-.72.12,3.13,3.13,0,0,0-1.71,1.17,2.14,2.14,0,0,0-.32,1.36,1.19,1.19,0,0,0,.18.61.09.09,0,0,1,0,.06c-.61.05-1-.09-1.18-.41a.77.77,0,0,1-.11-.42,1.62,1.62,0,0,1,.27-1,3.34,3.34,0,0,1,.86-.91,5.27,5.27,0,0,1,2.87-1,3,3,0,0,1,1.86.33,1.41,1.41,0,0,1,.71,1.09,1.66,1.66,0,0,1-.23.9,2.21,2.21,0,0,1-.82.78,1.56,1.56,0,0,1,1.07.49,1.67,1.67,0,0,1,.41,1,3.81,3.81,0,0,1-.05.86,2.78,2.78,0,0,1-1.08,1.81,2.14,2.14,0,0,1-1.2.4,1.2,1.2,0,0,1-1-.3.62.62,0,0,1-.14-.38,1.5,1.5,0,0,1,.1-.58,1.13,1.13,0,0,0,.77.31,1,1,0,0,0,.88-.68A2.82,2.82,0,0,0,125.16,73Z" transform="translate(-1.46 -32.04)"/><path class="cls-17" d="M131.31,72.67a3.59,3.59,0,0,1-.75,2.22,2.41,2.41,0,0,1-1.79,1,1.66,1.66,0,0,1-1.77-.73,1.54,1.54,0,0,1-.19-.65,6.32,6.32,0,0,1,0-.75,4.77,4.77,0,0,1,.17-.78,3.54,3.54,0,0,1,.9-1.53,2.78,2.78,0,0,1,1.83-.8c1-.07,1.5.42,1.59,1.46v0S131.31,72.66,131.31,72.67Zm-.95.06a2,2,0,0,0,0-.51,3.44,3.44,0,0,0,0-.46,1.13,1.13,0,0,0-.14-.45.43.43,0,0,0-.38-.1c-.35,0-.66.39-.94,1.09a4.33,4.33,0,0,0-.36,1.84,1.18,1.18,0,0,0,.15.61.48.48,0,0,0,.22.15,1,1,0,0,0,.31,0c.26,0,.51-.23.74-.66A3.82,3.82,0,0,0,130.36,72.73Z" transform="translate(-1.46 -32.04)"/><path class="cls-18" d="M135.13,71.2a.49.49,0,0,1-.59-.52.4.4,0,0,1,.22-.4,1.16,1.16,0,0,1,.46-.14.61.61,0,0,1,.57.23,1.15,1.15,0,0,1,.22.57,1.26,1.26,0,0,1-.07.53,3.55,3.55,0,0,1-.73,1.1l-.66.74.16.69a1.51,1.51,0,0,0,.24.63.76.76,0,0,0,.26.18,1.18,1.18,0,0,0,.27,0,1,1,0,0,0,.61-.3,1.51,1.51,0,0,0,.37-.67l.48,0a3.15,3.15,0,0,1-1.05,1.6,2.24,2.24,0,0,1-1.13.43h0c-.72,0-1.24-.5-1.53-1.65l-1.47,1.64h-.84l2.18-2.25-.27-1.11a2.55,2.55,0,0,0-.23-.66.27.27,0,0,0-.27-.14c-.24,0-.5.24-.76.69a5.54,5.54,0,0,0-.61,1.86l-.48,0a7.92,7.92,0,0,1,.4-1.54,5.91,5.91,0,0,1,.36-.72,2.72,2.72,0,0,1,.75-.85,1.66,1.66,0,0,1,.88-.35,1.56,1.56,0,0,1,.7.07,1.08,1.08,0,0,1,.43.32,1.62,1.62,0,0,1,.31.71l.15.76a2.93,2.93,0,0,0,.91-1.51Z" transform="translate(-1.46 -32.04)"/><line class="cls-19" x1="169.99" y1="37.34" x2="180.5" y2="37.34"/><line class="cls-19" x1="169.99" y1="39.94" x2="180.5" y2="39.94"/><line class="cls-19" x1="169.99" y1="42.54" x2="180.5" y2="42.54"/><rect class="cls-7" x="81.73" y="59.81" width="98.49" height="47.25" rx="4.73" ry="4.73"/><rect class="cls-20" x="85.87" y="65.32" width="7.33" height="7.15" rx="2.24" ry="2.24"/><line class="cls-21" x1="105.56" y1="68.89" x2="169.93" y2="68.89"/><rect class="cls-22" x="85.96" y="81.02" width="90.28" height="17.49" rx="3.38" ry="3.38"/><path class="cls-7" d="M91.31,118.93a2.89,2.89,0,0,1,1.61-.45c1.06,0,1.8.54,1.8,1.46a1.52,1.52,0,0,1-1.26,1.45h0A1.51,1.51,0,0,1,95,122.9c0,1.24-1.1,1.73-2.22,1.73a3.26,3.26,0,0,1-1.6-.38l.21-.61a3,3,0,0,0,1.37.37c.91,0,1.41-.48,1.41-1.14,0-.89-.88-1.15-1.66-1.15H92.1v-.58h.36c.81,0,1.43-.49,1.43-1.1s-.43-.94-1.09-.94a2.61,2.61,0,0,0-1.28.39Z" transform="translate(-1.46 -32.04)"/><path class="cls-7" d="M98.41,124.54l-.06-.54h0a1.67,1.67,0,0,1-1.34.63,1.24,1.24,0,0,1-1.35-1.23c0-1,1-1.6,2.64-1.59v-.09a.89.89,0,0,0-1-1,2.29,2.29,0,0,0-1.14.32l-.18-.51a2.77,2.77,0,0,1,1.44-.38,1.53,1.53,0,0,1,1.67,1.75v1.6a5.39,5.39,0,0,0,.08,1Zm-.12-2.19c-.87,0-1.86.13-1.86,1a.7.7,0,0,0,.75.74,1,1,0,0,0,1.11-1Z" transform="translate(-1.46 -32.04)"/><path class="cls-7" d="M103,120.25v.63h-1.91v3.66h-.79v-4.29Z" transform="translate(-1.46 -32.04)"/><path class="cls-7" d="M103.78,121.65c0-.55,0-1,0-1.4h.72l0,.74h0a1.75,1.75,0,0,1,1.56-.83,2,2,0,0,1,1.86,2.17,2,2,0,0,1-2,2.3,1.56,1.56,0,0,1-1.36-.67h0v2.33h-.79Zm.79,1.14a1.51,1.51,0,0,0,0,.32,1.23,1.23,0,0,0,1.2.91c.84,0,1.33-.67,1.33-1.65s-.46-1.59-1.3-1.59a1.26,1.26,0,0,0-1.21,1,1.13,1.13,0,0,0-.05.32Z" transform="translate(-1.46 -32.04)"/><path class="cls-7" d="M109.14,120.25l1,2.54c.1.28.21.61.28.87h0c.08-.26.17-.58.28-.89l.87-2.52h.84l-1.19,3.06a6.61,6.61,0,0,1-1.51,2.68,2.17,2.17,0,0,1-1,.5l-.2-.65a2.22,2.22,0,0,0,.7-.38,2.34,2.34,0,0,0,.67-.87.45.45,0,0,0,.06-.19.55.55,0,0,0,0-.2l-1.62-4Z" transform="translate(-1.46 -32.04)"/><path class="cls-7" d="M113.52,122.05h.39c.67,0,1.12-.3,1.12-.7s-.35-.62-.85-.62a2.2,2.2,0,0,0-1.06.3l-.2-.47a2.78,2.78,0,0,1,1.46-.39c.67,0,1.49.29,1.49,1.12a1.1,1.1,0,0,1-1,1v0a1.15,1.15,0,0,1,1.19,1.07c0,.93-1,1.28-1.89,1.28a3.12,3.12,0,0,1-1.43-.35l.21-.52a2.58,2.58,0,0,0,1.16.29c.67,0,1.08-.31,1.08-.73,0-.58-.61-.74-1.28-.74h-.4Z" transform="translate(-1.46 -32.04)"/><path class="cls-7" d="M117.81,120.25v1.81c0,.68,0,1.11,0,1.72h0a13.83,13.83,0,0,1,.71-1.32l1.37-2.22h.93v4.29H120v-1.82c0-.7,0-1.06,0-1.75h0c-.29.55-.48.89-.73,1.33-.42.66-.9,1.49-1.37,2.24h-.92v-4.29Z" transform="translate(-1.46 -32.04)"/><path class="cls-7" d="M125,120.25v.62h-1.37v3.67h-.78v-3.67H121.5v-.62Z" transform="translate(-1.46 -32.04)"/><path class="cls-7" d="M126.5,120.25v1.46a4,4,0,0,1,.73,0c1,0,2,.3,2,1.44a1.21,1.21,0,0,1-.46,1,3.16,3.16,0,0,1-1.91.49,10.18,10.18,0,0,1-1.18-.06v-4.27Zm0,3.75a4.58,4.58,0,0,0,.59,0c.6,0,1.37-.19,1.37-.91s-.8-.9-1.39-.9a5.1,5.1,0,0,0-.57,0Z" transform="translate(-1.46 -32.04)"/><path class="cls-7" d="M135.57,120.25V124H136L136,125.9h-.63l0-1.36h-3l0,1.36h-.62l0-1.94H132a3.24,3.24,0,0,0,.44-.87,5.61,5.61,0,0,0,.25-1.71v-1.12Zm-2.22,1.31a5.41,5.41,0,0,1-.23,1.59,4.09,4.09,0,0,1-.35.79h2v-3.09h-1.44Z" transform="translate(-1.46 -32.04)"/><path class="cls-7" d="M140.91,122.36a2.11,2.11,0,0,1-2.18,2.27,2.06,2.06,0,0,1-2.11-2.2,2.11,2.11,0,0,1,2.18-2.27A2,2,0,0,1,140.91,122.36Zm-3.48,0c0,.94.55,1.65,1.33,1.65a1.48,1.48,0,0,0,1.34-1.66c0-.73-.37-1.65-1.32-1.65S137.43,121.59,137.43,122.4Z" transform="translate(-1.46 -32.04)"/><path class="cls-7" d="M142.71,120.25v1.86h.19l1.65-1.86h1l-1.91,1.94c.7.07,1.13.53,1.47,1.3a9.27,9.27,0,0,0,.48,1.05h-.84a5.77,5.77,0,0,1-.41-.88,1.42,1.42,0,0,0-1.45-1h-.15v1.89h-.79v-4.29Z" transform="translate(-1.46 -32.04)"/><path class="cls-7" d="M146.62,120.25l1,2.54c.1.28.21.61.28.87h0c.08-.26.17-.58.28-.89l.87-2.52h.84l-1.19,3.06a6.61,6.61,0,0,1-1.51,2.68,2.17,2.17,0,0,1-1,.5l-.2-.65a2.22,2.22,0,0,0,.7-.38,2.34,2.34,0,0,0,.67-.87.45.45,0,0,0,.06-.19.55.55,0,0,0,0-.2l-1.63-4Z" transform="translate(-1.46 -32.04)"/><path class="cls-7" d="M150.6,120.25h1l.79,2.16c.11.32.3.84.4,1.18h0c.1-.32.35-1,.52-1.47l.71-1.87h1l.31,4.29h-.77l-.1-2.05c0-.46-.06-1-.08-1.53h0c-.11.39-.23.74-.48,1.39l-.84,2.16h-.58l-.78-2.11c-.14-.41-.33-1-.44-1.43h0c0,.51-.05,1.07-.08,1.54l-.11,2h-.73Z" transform="translate(-1.46 -32.04)"/><path class="cls-7" d="M156.79,122.54A1.39,1.39,0,0,0,158.3,124a2.83,2.83,0,0,0,1.21-.22l.14.56a3.67,3.67,0,0,1-1.46.27,2,2,0,0,1-2.16-2.16,2.09,2.09,0,0,1,2.06-2.31,1.82,1.82,0,0,1,1.81,2c0,.16,0,.29,0,.37Zm2.34-.56a1.12,1.12,0,0,0-1.11-1.27A1.31,1.31,0,0,0,156.8,122Z" transform="translate(-1.46 -32.04)"/><path class="cls-7" d="M161.66,120.25V122h2.09v-1.73h.79v4.29h-.79V122.6h-2.09v1.94h-.79v-4.29Z" transform="translate(-1.46 -32.04)"/><path class="cls-7" d="M168.78,120.25v.62h-1.37v3.67h-.79v-3.67h-1.37v-.62Z" transform="translate(-1.46 -32.04)"/><path class="cls-7" d="M170.25,120.25v1.46a4.34,4.34,0,0,1,.71,0c.95,0,1.9.38,1.9,1.43a1.21,1.21,0,0,1-.45,1,2.87,2.87,0,0,1-1.77.49,10.06,10.06,0,0,1-1.18-.06v-4.27Zm0,3.75a4.22,4.22,0,0,0,.55,0c.61,0,1.27-.24,1.27-.91s-.63-.9-1.23-.9a4.69,4.69,0,0,0-.59,0Zm3.95-3.75v4.29h-.79v-4.29Z" transform="translate(-1.46 -32.04)"/><rect class="cls-7" x="83.01" y="113.64" width="97.21" height="17.14" rx="3.9" ry="3.9"/><rect class="cls-7" x="83.01" y="134.34" width="97.21" height="17.14" rx="3.86" ry="3.86"/><rect class="cls-7" x="83.01" y="155.04" width="97.21" height="17.14" rx="3.87" ry="3.87"/><path class="cls-23" d="M177.72,162.82H143.46V145.68h34.26a3.91,3.91,0,0,1,4,3.86V159A3.9,3.9,0,0,1,177.72,162.82Z" transform="translate(-1.46 -32.04)"/><path class="cls-22" d="M177.76,183.52h-34.3V166.38h34.3a3.87,3.87,0,0,1,3.92,3.82v9.51A3.87,3.87,0,0,1,177.76,183.52Z" transform="translate(-1.46 -32.04)"/><path class="cls-22" d="M177.76,204.22h-34.3V187.08h34.3a3.87,3.87,0,0,1,3.92,3.82v9.5A3.87,3.87,0,0,1,177.76,204.22Z" transform="translate(-1.46 -32.04)"/><polygon class="cls-24" points="94.12 125.87 91.45 125.87 90.37 118.56 95.2 118.56 94.12 125.87"/><polygon class="cls-24" points="94.12 147 91.45 147 90.37 139.69 95.2 139.69 94.12 147"/><polygon class="cls-24" points="94.12 167.26 91.45 167.26 90.37 159.96 95.2 159.96 94.12 167.26"/><line class="cls-21" x1="100.49" y1="122.21" x2="133.29" y2="122.21"/><line class="cls-21" x1="100.49" y1="143.35" x2="133.29" y2="143.35"/><line class="cls-21" x1="100.49" y1="163.61" x2="133.29" y2="163.61"/><text class="cls-25" transform="translate(145.37 124.27) scale(1.03 1)"><tspan class="cls-26">Д</tspan><tspan class="cls-27" x="4.68" y="0">а</tspan><tspan x="8.27" y="0">лее</tspan></text><text class="cls-25" transform="translate(145.37 144.66) scale(1.03 1)"><tspan class="cls-26">Д</tspan><tspan class="cls-27" x="4.68" y="0">а</tspan><tspan x="8.27" y="0">лее</tspan></text><text class="cls-25" transform="translate(145.37 164.92) scale(1.03 1)"><tspan class="cls-26">Д</tspan><tspan class="cls-27" x="4.68" y="0">а</tspan><tspan x="8.27" y="0">лее</tspan></text><polygon class="cls-28" points="79.92 251.14 70.14 260.3 78.61 270.19 75.88 261.67 85.09 255.32 79.92 251.14"/><path class="cls-29" d="M78.16,302.78,71,294.22a1.06,1.06,0,0,1,.16-1.52l1-.79,7.87,9.4a1.06,1.06,0,0,1-.15,1.52l-.14.1A1.13,1.13,0,0,1,78.16,302.78Z" transform="translate(-1.46 -32.04)"/><polygon class="cls-28" points="114.07 265.37 110.21 277.49 122.03 281.97 115.68 276.04 120.41 266.54 114.07 265.37"/><path class="cls-29" d="M122.15,315.33l-10.1-3.94a1,1,0,0,1-.59-1.35l.46-1.12L123,313.26a1,1,0,0,1,.59,1.35l-.06.15A1.06,1.06,0,0,1,122.15,315.33Z" transform="translate(-1.46 -32.04)"/><path class="cls-30" d="M132.3,229a9,9,0,0,0-7.68,3.48,6.52,6.52,0,0,0-10.33,1.91h0C112,239.2,110,244.1,108,249s-3.87,9.93-5.71,14.63l-.31.76,0,.12-.24.28c-.4.38-.75.74-1.18,1.14l-1.36,1.2c-1.88,1.65-3.93,3.28-6,4.95-4.09,3.3-8.28,6.66-12.31,10.15l-.05,0a4.28,4.28,0,0,0-1,5.12,4.48,4.48,0,0,0,5.93,2,148.94,148.94,0,0,0,14.51-7.83c2.37-1.44,4.69-2.95,7-4.61l1.78-1.33c.6-.46,1.23-1,1.84-1.51.34-.31.71-.67,1.06-1,.18-.19.34-.33.54-.55s.55-.7.81-1.07.52-.78.7-1.09l.28-.57.27-.57.22-.49c1.17-2.58,2.25-5,3.26-7.48s2-4.93,3-7.42c.4-1,.79-2.06,1.18-3.09,0,.61,0,1.21-.07,1.82-.09,2.58-.17,5.15-.22,7.76,0,1.32,0,2.61,0,4v1l0,1.11,0,.57,0,.75,0,.71a1,1,0,0,1,0-.37.29.29,0,0,0,0,.09v.25a6.18,6.18,0,0,1-.06.66c-.06.5-.15,1-.25,1.61-.21,1.14-.47,2.33-.74,3.52-.55,2.39-1.17,4.82-1.81,7.25-1.31,4.85-2.68,9.76-4.07,14.61v0a4.28,4.28,0,0,0,2.4,5.08,4.47,4.47,0,0,0,5.87-2.1c2.22-4.69,4.35-9.36,6.39-14.13,1-2.39,2-4.79,3-7.26.49-1.24,1-2.49,1.41-3.82.23-.66.45-1.35.66-2.09.11-.4.22-.73.32-1.21l.14-.69.13-.86c0-.36.05-.88.05-1.32,0-.12,0-.16,0-.24l.09-.59.24-1.67c.17-1.16.38-2.4.59-3.62.41-2.45.87-4.93,1.34-7.41l2.85-14.9v-.07a7.31,7.31,0,0,0,.13-1.06A8.83,8.83,0,0,0,132.3,229Zm-30.39,35.58-.06.15A1.41,1.41,0,0,1,101.91,264.57Zm.14-.2-.09.11,0,0a.92.92,0,0,1,.23-.25Z" transform="translate(-1.46 -32.04)"/><rect class="cls-31" x="112.93" y="168.32" width="26.38" height="34.75"/><path class="cls-28" d="M86.55,237.64a25.24,25.24,0,0,1,4.15-.33h1.5l-.75,1.31a26.82,26.82,0,0,1-2.3,3.51l-.13.16,0,0-2.14,1.55a.5.5,0,0,1-.62-.78l2-1.71-.15.17A28.15,28.15,0,0,1,90,237.75L90.7,239a25.23,25.23,0,0,1-4.15-.32.55.55,0,0,1,0-1.08Z" transform="translate(-1.46 -32.04)"/><path class="cls-28" d="M86.52,245.07,90,242.49l-.16.18L91.39,239a.78.78,0,0,1,1.43.6s0,.07,0,.1l-2,3.39-.08.13-.08.05L87,245.69a.38.38,0,0,1-.44-.62Z" transform="translate(-1.46 -32.04)"/><path class="cls-28" d="M87.87,245.54l3.59-2.49-.19.24.87-3.58a.89.89,0,0,1,1.07-.66.9.9,0,0,1,.66,1.08.87.87,0,0,1-.07.17l-1.59,3.33-.08.18-.11.07-3.7,2.33a.4.4,0,0,1-.56-.12A.42.42,0,0,1,87.87,245.54Z" transform="translate(-1.46 -32.04)"/><path class="cls-28" d="M90.27,245.5c1-.66,2-1.4,2.92-2.14l-.2.31c.17-1.17.36-2.34.45-3.53a.78.78,0,0,1,1.55.13.58.58,0,0,1,0,.18c-.38,1.13-.68,2.28-1,3.42l-.06.21-.14.1c-1,.67-2,1.33-3,2.07a.45.45,0,0,1-.64-.08.46.46,0,0,1,.08-.65Z" transform="translate(-1.46 -32.04)"/><polygon class="cls-28" points="87.95 208.78 92.35 210.17 92.91 210.34 94.44 207.01 97.58 204.66 95.24 201.39 91.77 205.03 89.25 205.28 87.95 208.78"/><path class="cls-31" d="M96.47,233l12.85-11.3-1,1.41,6.17-21.55a5.51,5.51,0,0,1,6.76-3.71,5.33,5.33,0,0,1,3.81,6.59,6.54,6.54,0,0,1-.34.87l-9.9,20.18-.2.42a2.77,2.77,0,0,1-.83,1L100,237.2a2.83,2.83,0,0,1-3.9-.5A2.68,2.68,0,0,1,96.47,233Z" transform="translate(-1.46 -32.04)"/><ellipse class="cls-28" cx="128.91" cy="156.6" rx="5.72" ry="8.44"/><path class="cls-28" d="M154.74,156.33l.29,6a.79.79,0,1,1-1.57.07v-.07l.28-6a.5.5,0,0,1,1,0Z" transform="translate(-1.46 -32.04)"/><path class="cls-28" d="M156,159.59l.28,6a.79.79,0,1,1-1.57.07v-.07l.29-6a.49.49,0,0,1,.52-.47A.51.51,0,0,1,156,159.59Z" transform="translate(-1.46 -32.04)"/><path class="cls-28" d="M156.89,160.49l.28,6a.79.79,0,0,1-1.57.08v-.08l.29-6a.49.49,0,0,1,.52-.47A.51.51,0,0,1,156.89,160.49Z" transform="translate(-1.46 -32.04)"/><path class="cls-28" d="M157.77,160.71l.28,3.71a.78.78,0,0,1-.72.84.79.79,0,0,1-.85-.72v-.12l.29-3.71a.5.5,0,0,1,.54-.46A.5.5,0,0,1,157.77,160.71Z" transform="translate(-1.46 -32.04)"/><path class="cls-28" d="M158.65,160.71l.28,3a.79.79,0,1,1-1.57.15v-.15l.29-3a.5.5,0,0,1,1,0Z" transform="translate(-1.46 -32.04)"/><polygon class="cls-28" points="151.98 130.55 153.3 135.79 150.96 141.83 153.68 143.35 157.26 131.97 151.98 130.55"/><path class="cls-31" d="M156.22,172.24l-2.69,18a1.56,1.56,0,0,1-.2.56l-.41.68-12.14,20a6.7,6.7,0,0,1-9.06,2.27,6.37,6.37,0,0,1-2.33-8.83,6.87,6.87,0,0,1,1.18-1.43L148,187.67l-.61,1.25,5.55-17.41a1.7,1.7,0,0,1,2.12-1.08A1.65,1.65,0,0,1,156.22,172.24Z" transform="translate(-1.46 -32.04)"/><path class="cls-32" d="M134.55,186.62s-2.11,7.56,0,12.77,6.35,13-4.14,17-12.21,8.71-12.21,8.71-8.66-10.53-5.58-16,4.62-10.51,4.62-13.06.26-12,1.56-15C122,173.75,136.58,175.61,134.55,186.62Z" transform="translate(-1.46 -32.04)"/><rect class="cls-33" x="148.81" y="37.95" width="0.08" height="0.07" rx="0.04" ry="0.04"/><rect class="cls-5" x="216.79" y="15.35" width="77.95" height="133.45"/><rect class="cls-1" x="232.58" y="51.4" width="149.04" height="83.34"/><rect class="cls-6" x="235.17" y="54.42" width="143.24" height="77.59"/><rect class="cls-7" x="216.79" y="16.03" width="77.95" height="13.44"/><path class="cls-9" d="M229.47,59h-4.38a2.07,2.07,0,0,1-2.09-2V52.65a2.07,2.07,0,0,1,2.09-2h4.38a2.06,2.06,0,0,1,2.09,2v4.27A2.07,2.07,0,0,1,229.47,59Z" transform="translate(-1.46 -32.04)"/><path class="cls-7" d="M225.41,54.5c.12.08.23,0,.23-.11.05-2.78,4-2.26,2.14-.11-.63.65-1.21,0-1,.31s-.22.21.12.17c2.17-.28,1.47,2.71.35,1.88a.16.16,0,0,0-.22.08.61.61,0,0,0,.6.91,1.71,1.71,0,0,0,1.72-1.81c.07-1.29-.83-1.34-1.13-1.34-.12,0,.18-.07.22-.18l.46-1.26a.16.16,0,0,0,0-.18l-.64-.59a.19.19,0,0,0-.14-.05l-1.9.18a.16.16,0,0,0-.13.09l-.9,1.65a.16.16,0,0,0,.05.21Z" transform="translate(-1.46 -32.04)"/><path class="cls-10" d="M225.43,54.6c-.22,0-.79-.12-.57-.94.57-2.19,4.84-2.51,4.56,0,0,.52-.33,1.31-2.18,1.72a.2.2,0,0,0-.15.14l-.42,1.87a.18.18,0,0,1-.18.14h-.75a.19.19,0,0,1-.19-.22l1-4.26a.19.19,0,0,1,.15-.14l.72-.11a.19.19,0,0,1,.21.23l-.42,1.74c0,.16,0,.29.28.2a1.78,1.78,0,0,0,1-1.33c.42-2.15-3.27-1.47-2.89.74A.19.19,0,0,1,225.43,54.6Z" transform="translate(-1.46 -32.04)"/><path class="cls-34" d="M235,57.7l.76-4.43,1.15-.22-.39,2.32a1.33,1.33,0,0,0,.93-.64,1.86,1.86,0,0,0,.32-1.17.8.8,0,0,0-.59-.78,1.08,1.08,0,0,0-.45-.05,2.37,2.37,0,0,0-1.46.54,1.48,1.48,0,0,0-.45,1.26.71.71,0,0,0,.12.41s0,0,0,.05q-.63,0-.81-.3a.82.82,0,0,1-.08-.31,1.08,1.08,0,0,1,.21-.67,2.27,2.27,0,0,1,.59-.61,3.43,3.43,0,0,1,1.8-.68,2.19,2.19,0,0,1,1.44.29,1.2,1.2,0,0,1,.54.92,1.6,1.6,0,0,1-.11.67,1.86,1.86,0,0,1-.41.62,2.38,2.38,0,0,1-1.62.7h0l-.34,2.07Z" transform="translate(-1.46 -32.04)"/><path class="cls-35" d="M238.15,57.7l.59-3.47,1-.08-.07.43a4.4,4.4,0,0,1,.41-.31,1,1,0,0,1,.51-.18.56.56,0,0,1,.42.13.5.5,0,0,1,.16.29.52.52,0,0,1-.13.41.48.48,0,0,1-.35.18.37.37,0,0,1-.29-.06.38.38,0,0,1-.1-.17.46.46,0,0,0,0-.14s-.05,0-.11,0a.61.61,0,0,0-.28.08,1.52,1.52,0,0,0-.26.22l-.45,2.71Z" transform="translate(-1.46 -32.04)"/><path class="cls-36" d="M243.44,56.31a1.74,1.74,0,0,1-1.6,1.38.82.82,0,0,1-.57-.15.73.73,0,0,1-.28-.61,2.39,2.39,0,0,1,0-.45l.38-2.23,1.13-.07-.4,2.35a1.07,1.07,0,0,0,0,.25c0,.15.12.22.34.21a.64.64,0,0,0,.41-.2.91.91,0,0,0,.25-.46Zm-.7-3.06a.49.49,0,0,1-.16.39.64.64,0,0,1-.44.19.7.7,0,0,1-.45-.12.51.51,0,0,1-.2-.37.52.52,0,0,1,.15-.4.63.63,0,0,1,.42-.19.65.65,0,0,1,.46.12A.49.49,0,0,1,242.74,53.25Z" transform="translate(-1.46 -32.04)"/><path class="cls-37" d="M246,56.72q0,.3.3.27a.55.55,0,0,0,.4-.17,1.9,1.9,0,0,0,.25-.48l.33,0c-.25.79-.64,1.23-1.15,1.34a2.16,2.16,0,0,1-.3,0,.89.89,0,0,1-.36,0,.68.68,0,0,1-.54-.67,3.29,3.29,0,0,1,.11-.9,3.78,3.78,0,0,0,.12-.86c0-.23-.12-.34-.31-.33s-.34.16-.47.43a.92.92,0,0,0-.09.25l-.38,2.13h-1.13l.59-3.31,1.13-.08-.06.36a1.29,1.29,0,0,1,.89-.45,1.1,1.1,0,0,1,.64.14.61.61,0,0,1,.28.52,3,3,0,0,1-.07.81l-.14.67A.94.94,0,0,0,246,56.72Z" transform="translate(-1.46 -32.04)"/><path class="cls-38" d="M249.27,56.31a1.74,1.74,0,0,1-1.61,1.38.81.81,0,0,1-.56-.15.76.76,0,0,1-.29-.61,1.82,1.82,0,0,1,0-.45l.34-1.95-.26,0,0-.28.26,0,.17-1,1.15-.22-.19,1.1.47,0,0,.27-.47,0L248,56.53a1,1,0,0,0,0,.25c0,.15.12.22.33.2a.58.58,0,0,0,.42-.2.91.91,0,0,0,.25-.45Z" transform="translate(-1.46 -32.04)"/><path class="cls-39" d="M252.45,55.77c0-.58-.31-.85-.81-.82a2.27,2.27,0,0,0-.35,0l-.46,2.75-1.13,0,.76-4.38,1.15-.22-.26,1.54h0a1.2,1.2,0,0,0,1.06-1.19.69.69,0,0,0-.61-.63,1.34,1.34,0,0,0-.46,0,2.41,2.41,0,0,0-.48.08,2,2,0,0,0-1.17.8,1.47,1.47,0,0,0-.22.92.86.86,0,0,0,.13.41.08.08,0,0,1,0,0c-.42,0-.68-.06-.81-.28a.59.59,0,0,1-.07-.29,1.09,1.09,0,0,1,.18-.69,2.16,2.16,0,0,1,.59-.62,3.74,3.74,0,0,1,1.95-.7,2.11,2.11,0,0,1,1.26.23.93.93,0,0,1,.48.74,1.06,1.06,0,0,1-.16.61,1.41,1.41,0,0,1-.55.53,1.11,1.11,0,0,1,.73.33,1.22,1.22,0,0,1,.28.7,3.29,3.29,0,0,1,0,.59,1.92,1.92,0,0,1-.73,1.23,1.46,1.46,0,0,1-.82.27.86.86,0,0,1-.71-.2.5.5,0,0,1-.09-.26.91.91,0,0,1,.07-.4.73.73,0,0,0,.52.21.67.67,0,0,0,.6-.46A1.88,1.88,0,0,0,252.45,55.77Z" transform="translate(-1.46 -32.04)"/><path class="cls-40" d="M256.63,55.53a2.42,2.42,0,0,1-.51,1.5,1.68,1.68,0,0,1-1.22.65,1.15,1.15,0,0,1-1.2-.5,1.07,1.07,0,0,1-.13-.44,4.34,4.34,0,0,1,0-.51,2.68,2.68,0,0,1,.12-.53,2.4,2.4,0,0,1,.61-1,1.84,1.84,0,0,1,1.24-.54q1-.07,1.08,1v.42Zm-.65,0a1.82,1.82,0,0,0,0-.35,2.45,2.45,0,0,0,0-.31.74.74,0,0,0-.1-.3.27.27,0,0,0-.25-.07c-.24,0-.46.26-.64.74a3,3,0,0,0-.25,1.25.8.8,0,0,0,.1.41A.33.33,0,0,0,255,57h.2q.27,0,.51-.45A2.65,2.65,0,0,0,256,55.56Z" transform="translate(-1.46 -32.04)"/><path class="cls-41" d="M259.22,54.53c-.25,0-.38-.1-.4-.36a.26.26,0,0,1,.15-.27.75.75,0,0,1,.31-.1.42.42,0,0,1,.39.16.64.64,0,0,1,.14.39.85.85,0,0,1,0,.36,2.58,2.58,0,0,1-.49.74l-.45.5.1.48a1,1,0,0,0,.17.42.41.41,0,0,0,.18.13.51.51,0,0,0,.18,0,.6.6,0,0,0,.41-.2.91.91,0,0,0,.25-.45l.33,0a2.07,2.07,0,0,1-.72,1.08,1.35,1.35,0,0,1-.76.29h0c-.49,0-.83-.34-1-1.12l-1,1.11h-.57l1.48-1.52-.18-.76a2.13,2.13,0,0,0-.16-.44.18.18,0,0,0-.18-.1c-.17,0-.34.17-.52.47a4,4,0,0,0-.42,1.26l-.32,0a5.43,5.43,0,0,1,.27-1.05c.1-.21.17-.38.24-.49a2,2,0,0,1,.51-.57,1.16,1.16,0,0,1,1.07-.19.78.78,0,0,1,.3.22,1.08,1.08,0,0,1,.21.48l.1.51a2,2,0,0,0,.62-1Z" transform="translate(-1.46 -32.04)"/><line class="cls-19" x1="282.43" y1="21.25" x2="289.57" y2="21.25"/><line class="cls-19" x1="282.43" y1="23.01" x2="289.57" y2="23.01"/><line class="cls-19" x1="282.43" y1="24.78" x2="289.57" y2="24.78"/><rect class="cls-7" x="235.17" y="54.42" width="143.24" height="13.82"/><path class="cls-9" d="M247.72,97.66h-4.5a2.12,2.12,0,0,1-2.14-2.09v-4.4a2.12,2.12,0,0,1,2.14-2.09h4.5a2.1,2.1,0,0,1,2.15,2.09v4.4A2.13,2.13,0,0,1,247.72,97.66Z" transform="translate(-1.46 -32.04)"/><path class="cls-7" d="M243.56,93.07c.12.09.23,0,.23-.11.05-2.85,4.08-2.32,2.2-.11-.65.66-1.24,0-1,.32s-.22.22.13.17c2.22-.29,1.51,2.79.35,1.94-.07-.06-.19,0-.23.08a.63.63,0,0,0,.62.94,1.76,1.76,0,0,0,1.77-1.86c.07-1.33-.85-1.38-1.16-1.39-.12,0,.18-.07.22-.18l.48-1.29a.17.17,0,0,0,0-.19l-.66-.61a.19.19,0,0,0-.14,0l-1.95.19a.18.18,0,0,0-.14.09l-.92,1.69a.17.17,0,0,0,0,.22Z" transform="translate(-1.46 -32.04)"/><path class="cls-10" d="M243.57,93.18c-.22,0-.81-.12-.58-1,.59-2.25,5-2.58,4.68,0-.06.53-.34,1.34-2.24,1.77a.18.18,0,0,0-.15.14c-.14.64-.35,1.56-.43,1.92a.2.2,0,0,1-.19.15h-.77a.19.19,0,0,1-.19-.24l1-4.37a.19.19,0,0,1,.16-.15l.74-.11a.2.2,0,0,1,.22.23l-.44,1.79c0,.16,0,.3.29.21a1.82,1.82,0,0,0,1.05-1.37c.43-2.21-3.35-1.51-3,.77A.19.19,0,0,1,243.57,93.18Z" transform="translate(-1.46 -32.04)"/><path class="cls-42" d="M252.28,96.37l.78-4.56,1.18-.22-.4,2.38a1.34,1.34,0,0,0,.95-.66,1.89,1.89,0,0,0,.33-1.2.83.83,0,0,0-.6-.81,1.34,1.34,0,0,0-.46,0,2.38,2.38,0,0,0-1.51.55,1.55,1.55,0,0,0-.45,1.3.75.75,0,0,0,.12.42s0,0,0,0c-.43,0-.71-.07-.83-.3a.94.94,0,0,1-.08-.32,1,1,0,0,1,.21-.7,2.42,2.42,0,0,1,.61-.63,3.57,3.57,0,0,1,1.84-.69,2.24,2.24,0,0,1,1.48.29,1.22,1.22,0,0,1,.55,1,1.54,1.54,0,0,1-.11.69,2,2,0,0,1-.42.64,2.47,2.47,0,0,1-1.66.72h0l-.35,2.13Z" transform="translate(-1.46 -32.04)"/><path class="cls-43" d="M255.55,96.37l.61-3.57,1-.08-.07.44a4.63,4.63,0,0,1,.42-.32.93.93,0,0,1,.51-.18.57.57,0,0,1,.44.13.5.5,0,0,1,.16.3.55.55,0,0,1-.13.42.53.53,0,0,1-.36.19.39.39,0,0,1-.3-.07.5.5,0,0,1-.1-.17.38.38,0,0,0,0-.14s-.06,0-.11,0a.66.66,0,0,0-.29.09,1.54,1.54,0,0,0-.27.22l-.46,2.78Z" transform="translate(-1.46 -32.04)"/><path class="cls-44" d="M261,94.94a1.79,1.79,0,0,1-1.64,1.42.88.88,0,0,1-.59-.16.78.78,0,0,1-.29-.62,2,2,0,0,1,0-.47l.39-2.29,1.16-.08-.41,2.43a1,1,0,0,0,0,.25c0,.16.12.23.34.22a.65.65,0,0,0,.43-.21,1,1,0,0,0,.26-.47Zm-.72-3.15a.5.5,0,0,1-.16.41.77.77,0,0,1-.45.19.67.67,0,0,1-.46-.13.49.49,0,0,1-.21-.38.54.54,0,0,1,.15-.41.69.69,0,0,1,.91-.06A.49.49,0,0,1,260.26,91.79Z" transform="translate(-1.46 -32.04)"/><path class="cls-45" d="M263.62,95.36a.26.26,0,0,0,.31.28.54.54,0,0,0,.41-.18,1.7,1.7,0,0,0,.25-.49l.34,0c-.26.81-.65,1.27-1.18,1.38l-.31,0a1,1,0,0,1-.37,0,.72.72,0,0,1-.55-.69,4.12,4.12,0,0,1,.12-.93,4,4,0,0,0,.12-.88c0-.24-.12-.35-.32-.34s-.35.16-.49.44a1.06,1.06,0,0,0-.09.25l-.39,2.2h-1.16l.61-3.41,1.16-.08-.06.37a1.3,1.3,0,0,1,.91-.46,1.08,1.08,0,0,1,.66.14.63.63,0,0,1,.29.54,3.16,3.16,0,0,1-.07.83l-.15.69A1,1,0,0,0,263.62,95.36Z" transform="translate(-1.46 -32.04)"/><path class="cls-46" d="M267,94.94a1.79,1.79,0,0,1-1.64,1.42.86.86,0,0,1-.58-.16.73.73,0,0,1-.29-.62,2.64,2.64,0,0,1,0-.47l.35-2-.27,0,.05-.29.26,0,.18-1,1.18-.22-.2,1.13.49,0,0,.29L266,93l-.37,2.14a1.13,1.13,0,0,0,0,.26c0,.15.13.23.34.21a.65.65,0,0,0,.43-.21,1,1,0,0,0,.26-.46Z" transform="translate(-1.46 -32.04)"/><path class="cls-47" d="M270.23,94.38c-.05-.59-.32-.88-.83-.84a2.23,2.23,0,0,0-.36,0l-.48,2.83-1.16,0,.79-4.51,1.18-.22-.27,1.58h0a1.08,1.08,0,0,0,.78-.42,1.09,1.09,0,0,0,.3-.8.72.72,0,0,0-.62-.66,1.45,1.45,0,0,0-.47,0,2,2,0,0,0-.5.08,1.81,1.81,0,0,0-.46.17,2,2,0,0,0-.74.65,1.5,1.5,0,0,0-.22,1,.72.72,0,0,0,.13.42.08.08,0,0,1,0,0c-.43,0-.71-.07-.83-.29a.66.66,0,0,1-.08-.3,1.26,1.26,0,0,1,.19-.72,2.54,2.54,0,0,1,.6-.63,3.76,3.76,0,0,1,2-.72,2.08,2.08,0,0,1,1.3.24A.94.94,0,0,1,271,92a1.06,1.06,0,0,1-.16.63,1.53,1.53,0,0,1-.56.54,1.1,1.1,0,0,1,.74.34,1.29,1.29,0,0,1,.29.72,3.5,3.5,0,0,1,0,.61,2,2,0,0,1-.75,1.26,1.61,1.61,0,0,1-.84.28.86.86,0,0,1-.73-.21.55.55,0,0,1-.1-.27,1.13,1.13,0,0,1,.08-.4.76.76,0,0,0,.54.21.7.7,0,0,0,.61-.47A2,2,0,0,0,270.23,94.38Z" transform="translate(-1.46 -32.04)"/><path class="cls-48" d="M274.52,94.13a2.55,2.55,0,0,1-.52,1.55,1.74,1.74,0,0,1-1.25.67,1.18,1.18,0,0,1-1.24-.52,1.25,1.25,0,0,1-.13-.45,3,3,0,0,1,0-.52,2.82,2.82,0,0,1,.11-.55,2.44,2.44,0,0,1,.63-1.07,1.93,1.93,0,0,1,1.27-.55q1-.07,1.11,1s0,0,0,0S274.52,94.12,274.52,94.13Zm-.67,0a1.35,1.35,0,0,0,0-.36,2.73,2.73,0,0,0,0-.32.62.62,0,0,0-.1-.31.28.28,0,0,0-.26-.07c-.24,0-.46.27-.66.76a3.15,3.15,0,0,0-.25,1.29.76.76,0,0,0,.11.42.36.36,0,0,0,.15.11h.22c.18,0,.35-.17.51-.46A2.63,2.63,0,0,0,273.85,94.17Z" transform="translate(-1.46 -32.04)"/><path class="cls-49" d="M277.18,93.1a.34.34,0,0,1-.41-.36.28.28,0,0,1,.15-.28.75.75,0,0,1,.32-.1.41.41,0,0,1,.4.17.73.73,0,0,1,.15.39.88.88,0,0,1-.05.37,2.51,2.51,0,0,1-.5.77l-.46.51.11.49a.91.91,0,0,0,.16.43.5.5,0,0,0,.19.13.55.55,0,0,0,.19,0,.69.69,0,0,0,.42-.2,1,1,0,0,0,.25-.47l.34,0a2.17,2.17,0,0,1-.73,1.11,1.45,1.45,0,0,1-.79.3h0c-.51,0-.87-.34-1.07-1.15l-1,1.15h-.58l1.52-1.57-.19-.77a1.61,1.61,0,0,0-.16-.46.18.18,0,0,0-.19-.1c-.17,0-.34.17-.53.48a4.22,4.22,0,0,0-.42,1.3l-.34,0a6.45,6.45,0,0,1,.28-1.07,4.56,4.56,0,0,1,.25-.5,2.05,2.05,0,0,1,.52-.6,1.2,1.2,0,0,1,.62-.24,1.1,1.1,0,0,1,.48.05.81.81,0,0,1,.31.22,1.17,1.17,0,0,1,.21.5l.11.53a2,2,0,0,0,.63-1.06Z" transform="translate(-1.46 -32.04)"/><ellipse class="cls-28" cx="343" cy="61.43" rx="4.23" ry="4.13"/><line class="cls-50" x1="351.26" y1="61.61" x2="373.77" y2="61.65"/><polygon id="_Path_" data-name="&lt;Path&gt;" class="cls-7" points="363.22 127.61 323.49 127.95 323.97 74.91 363.7 74.56 363.22 127.61"/><polygon class="cls-51" points="344.77 97.97 328.13 98.12 328.25 84.79 344.89 84.64 344.77 97.97"/><line class="cls-52" x1="328.22" y1="81.39" x2="360.2" y2="81.12"/><line class="cls-53" x1="330.04" y1="91.22" x2="342.96" y2="91.11"/><line class="cls-53" x1="328.01" y1="100.6" x2="359.86" y2="100.33"/><line class="cls-53" x1="327.97" y1="105.72" x2="359.82" y2="105.45"/><line class="cls-53" x1="327.87" y1="115.97" x2="359.72" y2="115.69"/><line class="cls-53" x1="327.83" y1="121.09" x2="359.68" y2="120.81"/><line class="cls-53" x1="330.08" y1="88.73" x2="342.99" y2="88.62"/><line class="cls-53" x1="330.03" y1="93.85" x2="342.95" y2="93.74"/><line class="cls-53" x1="328" y1="103.23" x2="359.85" y2="102.95"/><line class="cls-53" x1="327.91" y1="113.47" x2="359.76" y2="113.2"/><line class="cls-53" x1="327.86" y1="118.6" x2="359.71" y2="118.32"/><line class="cls-53" x1="327.82" y1="123.72" x2="359.67" y2="123.44"/><polygon class="cls-54" points="359.88 97.8 346.26 97.92 346.38 84.63 360 84.51 359.88 97.8"/><polygon class="cls-55" points="359.81 113.41 327.71 113.69 327.77 107.81 359.86 107.53 359.81 113.41"/><rect class="cls-7" x="253.05" y="82.69" width="43.4" height="7.09" rx="1.07" ry="1.07"/><rect class="cls-7" x="253.05" y="92.62" width="43.4" height="7.09" rx="1.07" ry="1.07"/><text class="cls-56" transform="translate(253.09 79.1) scale(1.03 1)">Выбр<tspan class="cls-57" x="14.54" y="0">ат</tspan><tspan x="20.09" y="0">ь опции</tspan></text><line class="cls-50" x1="256.74" y1="86.24" x2="289.9" y2="86.24"/><line class="cls-50" x1="256.74" y1="96.16" x2="289.9" y2="96.16"/><rect class="cls-22" x="253.15" y="110.61" width="43.36" height="8.96" rx="1.14" ry="1.14"/><rect class="cls-30" x="171.3" y="246.56" width="226.46" height="13.16"/><text class="cls-58" transform="translate(257.34 116.83) scale(1.03 1)"><tspan class="cls-59">Р</tspan><tspan x="3.19" y="0">асп</tspan><tspan class="cls-60" x="12.48" y="0">е</tspan><tspan x="15.6" y="0">ч</tspan><tspan class="cls-57" x="18.85" y="0">а</tspan><tspan class="cls-61" x="21.85" y="0">т</tspan><tspan class="cls-57" x="24.36" y="0">ат</tspan><tspan x="29.9" y="0">ь</tspan></text><text class="cls-56" transform="translate(253.96 106.95) scale(1.03 1)"><tspan class="cls-60">Ц</tspan><tspan x="4.08" y="0">ена: 4 Р</tspan></text><path class="cls-62" d="M310.51,262.07c.25-1.5.5-3,.72-4.5l.28-2-.13-.13a13.32,13.32,0,0,0-10.18-6.27,1,1,0,1,1,.26-2,15.31,15.31,0,0,1,9.67,4.65l.76.89.45-4.14c.15-1.5.27-3,.36-4.49l.13-2.59-.28-.74c-1.83-4.49-5.23-8.4-9.84-11.92a1,1,0,0,1-.18-1.42,1.06,1.06,0,0,1,1.45-.17,35.23,35.23,0,0,1,8.54,9l.41.7v-1.8a93.55,93.55,0,0,0-2.53-20.87,1,1,0,0,1,.76-1.21,1,1,0,0,1,1.24.75A91.22,91.22,0,0,1,314.75,229l.09,1.72.41-.34a59.91,59.91,0,0,1,15.7-10,1.06,1.06,0,0,1,1.36.52,1,1,0,0,1-.53,1.33,54.34,54.34,0,0,0-13.35,8.2L315,233.32l.05,1.79a127.35,127.35,0,0,1-.6,13.67l-.28,2.61.87-.79a63,63,0,0,1,18.63-11.43,1,1,0,0,1,1.34.57,1,1,0,0,1-.58,1.3A62.68,62.68,0,0,0,314,254.27l-.21.13-.16,1.2c-.31,2.27-.67,4.54-1.06,6.8a1,1,0,0,1-1.19.83,1,1,0,0,1-.84-1.16Z" transform="translate(-1.46 -32.04)"/><path class="cls-62" d="M294.94,243.75a3.18,3.18,0,1,1-3.25,3.18,3.22,3.22,0,0,1,3.25-3.18Z" transform="translate(-1.46 -32.04)"/><path class="cls-62" d="M299,243.28A1.73,1.73,0,1,1,297.2,245a1.74,1.74,0,0,1,1.77-1.72Z" transform="translate(-1.46 -32.04)"/><path class="cls-62" d="M296.83,248.19A2.77,2.77,0,1,1,294,251a2.8,2.8,0,0,1,2.84-2.77Z" transform="translate(-1.46 -32.04)"/><path class="cls-62" d="M300.18,249.7a2.29,2.29,0,1,1-2.35,2.28,2.31,2.31,0,0,1,2.35-2.28Z" transform="translate(-1.46 -32.04)"/><path class="cls-62" d="M303.53,250.22a1.64,1.64,0,1,1-1.68,1.63,1.65,1.65,0,0,1,1.68-1.63Z" transform="translate(-1.46 -32.04)"/><path class="cls-62" d="M303.21,242.76a2.75,2.75,0,1,1-2.81,2.75,2.77,2.77,0,0,1,2.81-2.75Z" transform="translate(-1.46 -32.04)"/><path class="cls-62" d="M305.59,246.91a1.29,1.29,0,1,1-1.32,1.29,1.31,1.31,0,0,1,1.32-1.29Z" transform="translate(-1.46 -32.04)"/><path class="cls-62" d="M304.68,248a2.11,2.11,0,1,1-2.15,2.1,2.13,2.13,0,0,1,2.15-2.1Z" transform="translate(-1.46 -32.04)"/><path class="cls-62" d="M300.11,244.94a4.07,4.07,0,1,1-4.17,4.07,4.12,4.12,0,0,1,4.17-4.07Z" transform="translate(-1.46 -32.04)"/><path class="cls-62" d="M321.73,241.69a2.08,2.08,0,1,1-2.13,2.08,2.11,2.11,0,0,1,2.13-2.08Z" transform="translate(-1.46 -32.04)"/><path class="cls-62" d="M324.14,236.86a3.75,3.75,0,1,1-3.85,3.75,3.8,3.8,0,0,1,3.85-3.75Z" transform="translate(-1.46 -32.04)"/><path class="cls-62" d="M324.33,244.79a3.18,3.18,0,1,1-3.26,3.18,3.22,3.22,0,0,1,3.26-3.18Z" transform="translate(-1.46 -32.04)"/><path class="cls-62" d="M328.54,247.73a2.54,2.54,0,1,1-2.6,2.54,2.57,2.57,0,0,1,2.6-2.54Z" transform="translate(-1.46 -32.04)"/><path class="cls-62" d="M327,234.22a2.1,2.1,0,1,1-2.16,2.1,2.12,2.12,0,0,1,2.16-2.1Z" transform="translate(-1.46 -32.04)"/><path class="cls-62" d="M332.35,232.71a3.68,3.68,0,1,1-3.77,3.68,3.73,3.73,0,0,1,3.77-3.68Z" transform="translate(-1.46 -32.04)"/><path class="cls-62" d="M338,234.75a2.84,2.84,0,1,1-2.91,2.83,2.87,2.87,0,0,1,2.91-2.83Z" transform="translate(-1.46 -32.04)"/><path class="cls-62" d="M332.65,246.9a4,4,0,1,1-4.15,4,4.1,4.1,0,0,1,4.15-4Z" transform="translate(-1.46 -32.04)"/><path class="cls-62" d="M339.61,242.82a4.88,4.88,0,1,1-5,4.88,4.95,4.95,0,0,1,5-4.88Z" transform="translate(-1.46 -32.04)"/><path class="cls-62" d="M341.76,237.92a3.19,3.19,0,1,1-3.27,3.19,3.23,3.23,0,0,1,3.27-3.19Z" transform="translate(-1.46 -32.04)"/><path class="cls-62" d="M331,235.35a8.12,8.12,0,1,1-8.32,8.12,8.23,8.23,0,0,1,8.32-8.12Z" transform="translate(-1.46 -32.04)"/><path class="cls-62" d="M284.19,224.91a3.84,3.84,0,1,1-3.94,3.84,3.9,3.9,0,0,1,3.94-3.84Z" transform="translate(-1.46 -32.04)"/><path class="cls-62" d="M285.81,220.35a3.3,3.3,0,1,1-3.39,3.3,3.34,3.34,0,0,1,3.39-3.3Z" transform="translate(-1.46 -32.04)"/><path class="cls-62" d="M290,218.57a2.81,2.81,0,1,1-2.88,2.81,2.84,2.84,0,0,1,2.88-2.81Z" transform="translate(-1.46 -32.04)"/><path class="cls-62" d="M296.75,216.57a4.76,4.76,0,1,1-4.88,4.76,4.81,4.81,0,0,1,4.88-4.76Z" transform="translate(-1.46 -32.04)"/><path class="cls-62" d="M287.32,231.63a2.06,2.06,0,1,1-2.11,2.06,2.09,2.09,0,0,1,2.11-2.06Z" transform="translate(-1.46 -32.04)"/><path class="cls-62" d="M290.85,233.52a2.56,2.56,0,1,1-2.62,2.56,2.6,2.6,0,0,1,2.62-2.56Z" transform="translate(-1.46 -32.04)"/><path class="cls-62" d="M294.41,236a3.09,3.09,0,1,1-3.16,3.09,3.13,3.13,0,0,1,3.16-3.09Z" transform="translate(-1.46 -32.04)"/><path class="cls-62" d="M300.18,235a3.55,3.55,0,1,1-3.64,3.55,3.6,3.6,0,0,1,3.64-3.55Z" transform="translate(-1.46 -32.04)"/><path class="cls-62" d="M305.11,234.35a2.75,2.75,0,1,1-2.81,2.75,2.78,2.78,0,0,1,2.81-2.75Z" transform="translate(-1.46 -32.04)"/><path class="cls-62" d="M303.06,221.75a2.82,2.82,0,1,1-2.89,2.82,2.86,2.86,0,0,1,2.89-2.82Z" transform="translate(-1.46 -32.04)"/><path class="cls-62" d="M305.78,225.2a5,5,0,1,1-5.13,5,5.07,5.07,0,0,1,5.13-5Z" transform="translate(-1.46 -32.04)"/><path class="cls-62" d="M296.23,221c5.45,0,9.87,3.94,9.87,8.79s-4.42,8.78-9.87,8.78-9.88-3.94-9.88-8.78,4.43-8.79,9.88-8.79Z" transform="translate(-1.46 -32.04)"/><path class="cls-62" d="M324.59,225.25a2.21,2.21,0,1,1-2.26,2.21,2.23,2.23,0,0,1,2.26-2.21Z" transform="translate(-1.46 -32.04)"/><path class="cls-62" d="M329.15,221.38a3.4,3.4,0,1,1-3.49,3.4,3.44,3.44,0,0,1,3.49-3.4Z" transform="translate(-1.46 -32.04)"/><path class="cls-62" d="M335.51,219.73a4.08,4.08,0,1,1-4.19,4.08,4.13,4.13,0,0,1,4.19-4.08Z" transform="translate(-1.46 -32.04)"/><path class="cls-62" d="M338.89,215.48a3.51,3.51,0,1,1-3.6,3.51,3.56,3.56,0,0,1,3.6-3.51Z" transform="translate(-1.46 -32.04)"/><path class="cls-62" d="M335.67,212.65a2.82,2.82,0,1,1-2.89,2.82,2.86,2.86,0,0,1,2.89-2.82Z" transform="translate(-1.46 -32.04)"/><path class="cls-62" d="M330.75,212.93a3.69,3.69,0,1,1-3.78,3.69,3.74,3.74,0,0,1,3.78-3.69Z" transform="translate(-1.46 -32.04)"/><path class="cls-62" d="M325.84,216.66a2.3,2.3,0,1,1-2.35,2.3,2.32,2.32,0,0,1,2.35-2.3Z" transform="translate(-1.46 -32.04)"/><path class="cls-62" d="M323.6,219.68a3.41,3.41,0,1,1-3.5,3.41,3.46,3.46,0,0,1,3.5-3.41Z" transform="translate(-1.46 -32.04)"/><path class="cls-62" d="M331.84,215.05a5.47,5.47,0,1,1-5.6,5.47,5.54,5.54,0,0,1,5.6-5.47Z" transform="translate(-1.46 -32.04)"/><path class="cls-62" d="M299.58,205.74a3.84,3.84,0,1,1-3.94,3.84,3.9,3.9,0,0,1,3.94-3.84Z" transform="translate(-1.46 -32.04)"/><path class="cls-62" d="M306.73,196.32a3.81,3.81,0,1,1-3.91,3.81,3.85,3.85,0,0,1,3.91-3.81Z" transform="translate(-1.46 -32.04)"/><path class="cls-62" d="M301.5,200.43a3.54,3.54,0,1,1-3.63,3.53,3.58,3.58,0,0,1,3.63-3.53Z" transform="translate(-1.46 -32.04)"/><path class="cls-62" d="M313.45,193.84a3.84,3.84,0,1,1-3.94,3.84,3.89,3.89,0,0,1,3.94-3.84Z" transform="translate(-1.46 -32.04)"/><path class="cls-62" d="M318.05,198.37a3.5,3.5,0,1,1-3.58,3.5,3.55,3.55,0,0,1,3.58-3.5Z" transform="translate(-1.46 -32.04)"/><path class="cls-62" d="M319.82,203.75a2.87,2.87,0,1,1-2.94,2.86,2.9,2.9,0,0,1,2.94-2.86Z" transform="translate(-1.46 -32.04)"/><path class="cls-62" d="M315.24,215.71a3,3,0,1,1-3.07,3,3,3,0,0,1,3.07-3Z" transform="translate(-1.46 -32.04)"/><path class="cls-62" d="M318.71,211.12a3.54,3.54,0,1,1-3.63,3.53,3.58,3.58,0,0,1,3.63-3.53Z" transform="translate(-1.46 -32.04)"/><path class="cls-62" d="M319.83,207.86a3.11,3.11,0,1,1-3.2,3.11,3.15,3.15,0,0,1,3.2-3.11Z" transform="translate(-1.46 -32.04)"/><path class="cls-62" d="M311.26,217.76A2.25,2.25,0,1,1,309,220a2.28,2.28,0,0,1,2.31-2.25Z" transform="translate(-1.46 -32.04)"/><path class="cls-62" d="M307.58,215a3.31,3.31,0,1,1-3.4,3.31,3.35,3.35,0,0,1,3.4-3.31Z" transform="translate(-1.46 -32.04)"/><path class="cls-62" d="M303.09,210.93a3.65,3.65,0,1,1-3.74,3.65,3.7,3.7,0,0,1,3.74-3.65Z" transform="translate(-1.46 -32.04)"/><path class="cls-62" d="M310.66,199.35c4.73,0,8.57,4.31,8.57,9.63s-3.84,9.63-8.57,9.63-8.58-4.31-8.58-9.63,3.85-9.63,8.58-9.63Z" transform="translate(-1.46 -32.04)"/><polygon class="cls-63" points="309.46 246.59 309.46 246.59 295.9 246.59 293.7 228.84 309.54 228.84 309.54 228.84 325.29 228.84 323.09 246.59 309.46 246.59 309.46 246.59"/><path class="cls-64" d="M205.23,205s24.2,13.92,38.16,12.24,22.44-7.2,22.44-7.2,4,27.29,26.42,41.76,12,20.64,12,20.64-54.52,19.78-81.78,14.68S200.82,285,200.82,285,212,262.8,207.23,260.1s-7.77-16.86-6.89-25.22S205.23,205,205.23,205Z" transform="translate(-1.46 -32.04)"/><path class="cls-32" d="M255.32,203.48s-1,14.91-1.23,19.24c-8.55-2.2-12.59-5.23-12.59-5.23L251,202.63Z" transform="translate(-1.46 -32.04)"/><ellipse class="cls-28" cx="247.84" cy="209.72" rx="8.75" ry="5.72" transform="translate(-62.02 279.15) rotate(-58.45)"/><path class="cls-65" d="M232,221.68s-14.25-7.05-17,0,6.35,16.9,6,28.64-4.23,24.87,7.57,22.14,26.86-7.49,30.67-8.06,28.91-3.08,28.91-3.08-30-31.76-30.25-36.3S232,221.68,232,221.68Z" transform="translate(-1.46 -32.04)"/><path class="cls-28" d="M254,227.34l5.82,12.86-1.63-1.11,10.08,2.34a1.67,1.67,0,0,1-.54,3.28l-10.3-1a1.94,1.94,0,0,1-1.37-.78l-.26-.34-8.41-11.33a3.86,3.86,0,0,1,6.19-4.6A4.27,4.27,0,0,1,254,227.34Z" transform="translate(-1.46 -32.04)"/><path class="cls-28" d="M241.31,214.15l3.81.6,1.29,6.81s-.78,4.24-4.22,1.58S241.31,214.15,241.31,214.15Z" transform="translate(-1.46 -32.04)"/><path class="cls-66" d="M245.77,221.87a4,4,0,0,0-1.38,5.52l4.4,7.07a4,4,0,0,0,.77.91,4,4,0,0,1,1.86-4.43,4.19,4.19,0,0,1,4.88.44,3.66,3.66,0,0,0-.47-1.1l-4.4-7.06A4.19,4.19,0,0,0,245.77,221.87Z" transform="translate(-1.46 -32.04)"/><path class="cls-67" d="M248.19,221.24l-17.58.49s-2.48,7.09,5.6,34c19.19-7.87,17.51-6.13,17.51-6.13s-4.7-14.5-3.87-26.74A1.58,1.58,0,0,0,248.19,221.24Z" transform="translate(-1.46 -32.04)"/><path class="cls-28" d="M239.51,231.17,245.34,244l-2.22-1.14,19.81-1.13a1.67,1.67,0,0,1,.3,3.32l-19.69,2.45a2.18,2.18,0,0,1-2-.85l-.21-.29-8.42-11.33a3.86,3.86,0,0,1,6.2-4.6A4.21,4.21,0,0,1,239.51,231.17Z" transform="translate(-1.46 -32.04)"/><path class="cls-66" d="M229.35,222.36a4.33,4.33,0,0,0-1.51,6l4.8,7.7a4.05,4.05,0,0,0,.85,1,4.34,4.34,0,0,1,2-4.83,4.62,4.62,0,0,1,5.33.48,4.31,4.31,0,0,0-.52-1.19l-4.8-7.71A4.57,4.57,0,0,0,229.35,222.36Z" transform="translate(-1.46 -32.04)"/><polygon class="cls-28" points="271.38 246.23 270.17 252.38 284.79 255.66 273.66 247.61 271.38 246.23"/><path class="cls-32" d="M232,221.68l11.78-.45s-2-9,.58-12.38,10.41-1.11,10.95-5.37c.48-3.81-5.23-7-14.48-4.91C232.79,200.42,233.14,212.19,232,221.68Z" transform="translate(-1.46 -32.04)"/><ellipse class="cls-28" cx="242.45" cy="178.02" rx="1.48" ry="1.97"/><path class="cls-28" d="M250.14,213.31c1.3.91,2.94.84,3.67-.14l-4.7-3.29C248.38,210.87,248.84,212.4,250.14,213.31Z" transform="translate(-1.46 -32.04)"/><polygon class="cls-28" points="281.93 249.44 282.3 255.1 297.74 255.66 284.2 246.75 281.93 249.44"/><path class="cls-32" d="M271.36,277.16,279,250.49l4.48,4.63L249.66,262a2.86,2.86,0,0,1-1.28-5.57l33.41-8.6a3.69,3.69,0,0,1,4.5,2.66,3.58,3.58,0,0,1,0,1.78l-.05.19-6.57,27a4.31,4.31,0,1,1-8.38-2C271.33,277.28,271.34,277.21,271.36,277.16Z" transform="translate(-1.46 -32.04)"/><path class="cls-32" d="M285.78,290.89,272.49,288a1.64,1.64,0,0,1-1.28-1.95l.36-1.6,14.94,3.22a1.64,1.64,0,0,1,1.28,1.95h0A1.7,1.7,0,0,1,285.78,290.89Z" transform="translate(-1.46 -32.04)"/><path class="cls-29" d="M242,252.49l30.54-7.66.52-.13a4.31,4.31,0,0,1,5.18,3l9,31a3,3,0,0,1-5.61,1.92l-11.95-30,5.7,2.85-29.26,11.65a6.66,6.66,0,1,1-4.93-12.37C241.46,252.66,241.77,252.56,242,252.49Z" transform="translate(-1.46 -32.04)"/><path class="cls-29" d="M282.3,255.1h15.34a1.64,1.64,0,0,1,1.64,1.64v0a1.64,1.64,0,0,1-1.64,1.64h-13.7a1.64,1.64,0,0,1-1.64-1.64V255.1A0,0,0,0,1,282.3,255.1Z"/><rect class="cls-68" x="257.86" y="212.8" width="22.01" height="1.07"/><polygon class="cls-5" points="283.76 213.87 262.91 213.87 267.23 199.92 288.08 199.92 283.76 213.87"/><ellipse class="cls-68" cx="276.58" cy="206" rx="2.06" ry="2"/><path class="cls-32" d="M251.69,211a1.25,1.25,0,0,0-.24-.53,1.21,1.21,0,0,0-.48-.38,1.91,1.91,0,0,0-.64-.12,3.25,3.25,0,0,0-.69.08,2.33,2.33,0,0,1,1.41-.19,1.54,1.54,0,0,1,.67.37,1.57,1.57,0,0,1,.44.67.24.24,0,0,1-.15.31.25.25,0,0,1-.31-.15V211Z" transform="translate(-1.46 -32.04)"/><path class="cls-32" d="M252.38,209.63a1.27,1.27,0,0,0-.33-.42,1.08,1.08,0,0,0-.5-.22,1.64,1.64,0,0,0-.58,0,2.57,2.57,0,0,0-.6.23h0a.23.23,0,0,1-.31-.11.22.22,0,0,1,.1-.29,2.79,2.79,0,0,1,.68-.31,2.1,2.1,0,0,1,.79-.1,1.68,1.68,0,0,1,.78.29,1.77,1.77,0,0,1,.57.64.32.32,0,0,1-.13.43.32.32,0,0,1-.44-.12v-.05Z" transform="translate(-1.46 -32.04)"/><path class="cls-32" d="M249.93,215.92s-1.76-.59-2.22-1.77c1,2.6,1.93,2.77,1.93,2.77Z" transform="translate(-1.46 -32.04)"/><ellipse class="cls-31" cx="245.69" cy="179.05" rx="1.54" ry="1.5"/><path class="cls-69" d="M208.38,214.15s-5.14,19.65-1.81,29.8" transform="translate(-1.46 -32.04)"/><path class="cls-69" d="M212.92,278.27s18.77,6.21,31.16,2.67" transform="translate(-1.46 -32.04)"/><path class="cls-70" d="M238.24,197.68s-5.5,1.42-6.23,8.93" transform="translate(-1.46 -32.04)"/><rect class="cls-1" x="102.65" y="8.08" width="56.77" height="10.13" rx="0.85" ry="0.85"/></svg>